<?xml version="1.0" standalone="yes"?>
<!-- SVG graphic -->
<svg xmlns='http://www.w3.org/2000/svg' xmlns:xlink='http://www.w3.org/1999/xlink'
 version="1.1">
<rect x="0" y="-1.52588e-05" width="6" height="200" stroke="black" stroke-width="1" fill="blue" tooltip="enable"><title>(0,21690)</title></rect><rect x="6" y="11.609" width="6" height="188.391" stroke="black" stroke-width="1" fill="blue" tooltip="enable"><title>(0.0398558,20431)</title></rect><rect x="12" y="24.592" width="6" height="175.408" stroke="black" stroke-width="1" fill="blue" tooltip="enable"><title>(0.0797117,19023)</title></rect><rect x="18" y="36.8557" width="6" height="163.144" stroke="black" stroke-width="1" fill="blue" tooltip="enable"><title>(0.119567,17693)</title></rect><rect x="24" y="45.6524" width="6" height="154.348" stroke="black" stroke-width="1" fill="blue" tooltip="enable"><title>(0.159423,16739)</title></rect><rect x="30" y="56.4131" width="6" height="143.587" stroke="black" stroke-width="1" fill="blue" tooltip="enable"><title>(0.199279,15572)</title></rect><rect x="36" y="65.5509" width="6" height="134.449" stroke="black" stroke-width="1" fill="blue" tooltip="enable"><title>(0.239135,14581)</title></rect><rect x="42" y="76.911" width="6" height="123.089" stroke="black" stroke-width="1" fill="blue" tooltip="enable"><title>(0.278991,13349)</title></rect><rect x="48" y="86.5929" width="6" height="113.407" stroke="black" stroke-width="1" fill="blue" tooltip="enable"><title>(0.318847,12299)</title></rect><rect x="54" y="94.8548" width="6" height="105.145" stroke="black" stroke-width="1" fill="blue" tooltip="enable"><title>(0.358702,11403)</title></rect><rect x="60" y="101.429" width="6" height="98.5708" stroke="black" stroke-width="1" fill="blue" tooltip="enable"><title>(0.398558,10690)</title></rect><rect x="66" y="107.838" width="6" height="92.1623" stroke="black" stroke-width="1" fill="blue" tooltip="enable"><title>(0.438414,9995)</title></rect><rect x="72" y="116.339" width="6" height="83.6607" stroke="black" stroke-width="1" fill="blue" tooltip="enable"><title>(0.47827,9073)</title></rect><rect x="78" y="120.47" width="6" height="79.5297" stroke="black" stroke-width="1" fill="blue" tooltip="enable"><title>(0.518126,8625)</title></rect><rect x="84" y="128.077" width="6" height="71.9225" stroke="black" stroke-width="1" fill="blue" tooltip="enable"><title>(0.557982,7800)</title></rect><rect x="90" y="133.822" width="6" height="66.178" stroke="black" stroke-width="1" fill="blue" tooltip="enable"><title>(0.597838,7177)</title></rect><rect x="96" y="139.262" width="6" height="60.7377" stroke="black" stroke-width="1" fill="blue" tooltip="enable"><title>(0.637693,6587)</title></rect><rect x="102" y="142.84" width="6" height="57.16" stroke="black" stroke-width="1" fill="blue" tooltip="enable"><title>(0.677549,6199)</title></rect><rect x="108" y="146.814" width="6" height="53.1858" stroke="black" stroke-width="1" fill="blue" tooltip="enable"><title>(0.717405,5768)</title></rect><rect x="114" y="151.535" width="6" height="48.4647" stroke="black" stroke-width="1" fill="blue" tooltip="enable"><title>(0.757261,5256)</title></rect><rect x="120" y="153.859" width="6" height="46.1411" stroke="black" stroke-width="1" fill="blue" tooltip="enable"><title>(0.797117,5004)</title></rect><rect x="126" y="156.883" width="6" height="43.1166" stroke="black" stroke-width="1" fill="blue" tooltip="enable"><title>(0.836972,4676)</title></rect><rect x="132" y="161.051" width="6" height="38.9488" stroke="black" stroke-width="1" fill="blue" tooltip="enable"><title>(0.876828,4224)</title></rect><rect x="138" y="163.246" width="6" height="36.7543" stroke="black" stroke-width="1" fill="blue" tooltip="enable"><title>(0.916684,3986)</title></rect><rect x="144" y="165.975" width="6" height="34.0249" stroke="black" stroke-width="1" fill="blue" tooltip="enable"><title>(0.95654,3690)</title></rect><rect x="150" y="167.921" width="6" height="32.0793" stroke="black" stroke-width="1" fill="blue" tooltip="enable"><title>(0.996396,3479)</title></rect><rect x="156" y="169.239" width="6" height="30.7607" stroke="black" stroke-width="1" fill="blue" tooltip="enable"><title>(1.03625,3336)</title></rect><rect x="162" y="171.913" width="6" height="28.0867" stroke="black" stroke-width="1" fill="blue" tooltip="enable"><title>(1.07611,3046)</title></rect><rect x="168" y="174.486" width="6" height="25.5141" stroke="black" stroke-width="1" fill="blue" tooltip="enable"><title>(1.11596,2767)</title></rect><rect x="174" y="175.657" width="6" height="24.343" stroke="black" stroke-width="1" fill="blue" tooltip="enable"><title>(1.15582,2640)</title></rect><rect x="180" y="176.819" width="6" height="23.1812" stroke="black" stroke-width="1" fill="blue" tooltip="enable"><title>(1.19568,2514)</title></rect><rect x="186" y="178.442" width="6" height="21.5583" stroke="black" stroke-width="1" fill="blue" tooltip="enable"><title>(1.23553,2338)</title></rect><rect x="192" y="180.655" width="6" height="19.3453" stroke="black" stroke-width="1" fill="blue" tooltip="enable"><title>(1.27539,2098)</title></rect><rect x="198" y="181.936" width="6" height="18.0636" stroke="black" stroke-width="1" fill="blue" tooltip="enable"><title>(1.31524,1959)</title></rect><rect x="204" y="181.761" width="6" height="18.2388" stroke="black" stroke-width="1" fill="blue" tooltip="enable"><title>(1.3551,1978)</title></rect><rect x="210" y="183.015" width="6" height="16.9848" stroke="black" stroke-width="1" fill="blue" tooltip="enable"><title>(1.39495,1842)</title></rect><rect x="216" y="184.398" width="6" height="15.6017" stroke="black" stroke-width="1" fill="blue" tooltip="enable"><title>(1.43481,1692)</title></rect><rect x="222" y="185.671" width="6" height="14.3292" stroke="black" stroke-width="1" fill="blue" tooltip="enable"><title>(1.47467,1554)</title></rect><rect x="228" y="185.615" width="6" height="14.3845" stroke="black" stroke-width="1" fill="blue" tooltip="enable"><title>(1.51452,1560)</title></rect><rect x="234" y="187.165" width="6" height="12.8354" stroke="black" stroke-width="1" fill="blue" tooltip="enable"><title>(1.55438,1392)</title></rect><rect x="240" y="187.082" width="6" height="12.9184" stroke="black" stroke-width="1" fill="blue" tooltip="enable"><title>(1.59423,1401)</title></rect><rect x="246" y="188.649" width="6" height="11.3509" stroke="black" stroke-width="1" fill="blue" tooltip="enable"><title>(1.63409,1231)</title></rect><rect x="252" y="189.258" width="6" height="10.7423" stroke="black" stroke-width="1" fill="blue" tooltip="enable"><title>(1.67394,1165)</title></rect><rect x="258" y="189.82" width="6" height="10.1798" stroke="black" stroke-width="1" fill="blue" tooltip="enable"><title>(1.7138,1104)</title></rect><rect x="264" y="190.401" width="6" height="9.59889" stroke="black" stroke-width="1" fill="blue" tooltip="enable"><title>(1.75366,1041)</title></rect><rect x="270" y="190.853" width="6" height="9.14707" stroke="black" stroke-width="1" fill="blue" tooltip="enable"><title>(1.79351,992)</title></rect><rect x="276" y="191.028" width="6" height="8.97188" stroke="black" stroke-width="1" fill="blue" tooltip="enable"><title>(1.83337,973)</title></rect><rect x="282" y="191.923" width="6" height="8.07746" stroke="black" stroke-width="1" fill="blue" tooltip="enable"><title>(1.87322,876)</title></rect><rect x="288" y="192.337" width="6" height="7.66252" stroke="black" stroke-width="1" fill="blue" tooltip="enable"><title>(1.91308,831)</title></rect><rect x="294" y="192.955" width="6" height="7.04472" stroke="black" stroke-width="1" fill="blue" tooltip="enable"><title>(1.95294,764)</title></rect><rect x="300" y="193.794" width="6" height="6.20563" stroke="black" stroke-width="1" fill="blue" tooltip="enable"><title>(1.99279,673)</title></rect><rect x="306" y="194.449" width="6" height="5.55095" stroke="black" stroke-width="1" fill="blue" tooltip="enable"><title>(2.03265,602)</title></rect><rect x="312" y="194.624" width="6" height="5.37575" stroke="black" stroke-width="1" fill="blue" tooltip="enable"><title>(2.0725,583)</title></rect><rect x="318" y="195.131" width="6" height="4.8686" stroke="black" stroke-width="1" fill="blue" tooltip="enable"><title>(2.11236,528)</title></rect><rect x="324" y="195.307" width="6" height="4.69341" stroke="black" stroke-width="1" fill="blue" tooltip="enable"><title>(2.15222,509)</title></rect><rect x="330" y="195.519" width="6" height="4.48133" stroke="black" stroke-width="1" fill="blue" tooltip="enable"><title>(2.19207,486)</title></rect><rect x="336" y="195.851" width="6" height="4.14938" stroke="black" stroke-width="1" fill="blue" tooltip="enable"><title>(2.23193,450)</title></rect><rect x="342" y="195.952" width="6" height="4.04795" stroke="black" stroke-width="1" fill="blue" tooltip="enable"><title>(2.27178,439)</title></rect><rect x="348" y="196.505" width="6" height="3.4947" stroke="black" stroke-width="1" fill="blue" tooltip="enable"><title>(2.31164,379)</title></rect><rect x="354" y="196.312" width="6" height="3.68834" stroke="black" stroke-width="1" fill="blue" tooltip="enable"><title>(2.35149,400)</title></rect><rect x="360" y="196.634" width="6" height="3.36561" stroke="black" stroke-width="1" fill="blue" tooltip="enable"><title>(2.39135,365)</title></rect><rect x="366" y="197.077" width="6" height="2.92301" stroke="black" stroke-width="1" fill="blue" tooltip="enable"><title>(2.43121,317)</title></rect><rect x="372" y="197.123" width="6" height="2.8769" stroke="black" stroke-width="1" fill="blue" tooltip="enable"><title>(2.47106,312)</title></rect><rect x="378" y="196.773" width="6" height="3.22729" stroke="black" stroke-width="1" fill="blue" tooltip="enable"><title>(2.51092,350)</title></rect><rect x="384" y="197.261" width="6" height="2.73859" stroke="black" stroke-width="1" fill="blue" tooltip="enable"><title>(2.55077,297)</title></rect><rect x="390" y="197.344" width="6" height="2.6556" stroke="black" stroke-width="1" fill="blue" tooltip="enable"><title>(2.59063,288)</title></rect><rect x="396" y="197.759" width="6" height="2.24066" stroke="black" stroke-width="1" fill="blue" tooltip="enable"><title>(2.63048,243)</title></rect><rect x="402" y="197.898" width="6" height="2.10235" stroke="black" stroke-width="1" fill="blue" tooltip="enable"><title>(2.67034,228)</title></rect><rect x="408" y="197.796" width="6" height="2.20378" stroke="black" stroke-width="1" fill="blue" tooltip="enable"><title>(2.7102,239)</title></rect><rect x="414" y="198.193" width="6" height="1.80728" stroke="black" stroke-width="1" fill="blue" tooltip="enable"><title>(2.75005,196)</title></rect><rect x="420" y="198.064" width="6" height="1.93638" stroke="black" stroke-width="1" fill="blue" tooltip="enable"><title>(2.78991,210)</title></rect><rect x="426" y="198.054" width="6" height="1.9456" stroke="black" stroke-width="1" fill="blue" tooltip="enable"><title>(2.82976,211)</title></rect><rect x="432" y="198.432" width="6" height="1.56754" stroke="black" stroke-width="1" fill="blue" tooltip="enable"><title>(2.86962,170)</title></rect><rect x="438" y="198.414" width="6" height="1.58598" stroke="black" stroke-width="1" fill="blue" tooltip="enable"><title>(2.90948,172)</title></rect><rect x="444" y="198.479" width="6" height="1.52144" stroke="black" stroke-width="1" fill="blue" tooltip="enable"><title>(2.94933,165)</title></rect><rect x="450" y="198.608" width="6" height="1.39235" stroke="black" stroke-width="1" fill="blue" tooltip="enable"><title>(2.98919,151)</title></rect><rect x="456" y="198.718" width="6" height="1.2817" stroke="black" stroke-width="1" fill="blue" tooltip="enable"><title>(3.02904,139)</title></rect><rect x="462" y="198.811" width="6" height="1.18949" stroke="black" stroke-width="1" fill="blue" tooltip="enable"><title>(3.0689,129)</title></rect><rect x="468" y="198.746" width="6" height="1.25403" stroke="black" stroke-width="1" fill="blue" tooltip="enable"><title>(3.10875,136)</title></rect><rect x="474" y="198.857" width="6" height="1.14338" stroke="black" stroke-width="1" fill="blue" tooltip="enable"><title>(3.14861,124)</title></rect><rect x="480" y="199.032" width="6" height="0.968188" stroke="black" stroke-width="1" fill="blue" tooltip="enable"><title>(3.18847,105)</title></rect><rect x="486" y="198.986" width="6" height="1.01429" stroke="black" stroke-width="1" fill="blue" tooltip="enable"><title>(3.22832,110)</title></rect><rect x="492" y="199.087" width="6" height="0.912863" stroke="black" stroke-width="1" fill="blue" tooltip="enable"><title>(3.26818,99)</title></rect><rect x="498" y="199.198" width="6" height="0.802213" stroke="black" stroke-width="1" fill="blue" tooltip="enable"><title>(3.30803,87)</title></rect><rect x="504" y="199.272" width="6" height="0.728446" stroke="black" stroke-width="1" fill="blue" tooltip="enable"><title>(3.34789,79)</title></rect><rect x="510" y="199.465" width="6" height="0.534809" stroke="black" stroke-width="1" fill="blue" tooltip="enable"><title>(3.38775,58)</title></rect><rect x="516" y="199.53" width="6" height="0.470263" stroke="black" stroke-width="1" fill="blue" tooltip="enable"><title>(3.4276,51)</title></rect><rect x="522" y="199.327" width="6" height="0.673121" stroke="black" stroke-width="1" fill="blue" tooltip="enable"><title>(3.46746,73)</title></rect><rect x="528" y="199.373" width="6" height="0.627017" stroke="black" stroke-width="1" fill="blue" tooltip="enable"><title>(3.50731,68)</title></rect><rect x="534" y="199.493" width="6" height="0.507146" stroke="black" stroke-width="1" fill="blue" tooltip="enable"><title>(3.54717,55)</title></rect><rect x="540" y="199.576" width="6" height="0.424159" stroke="black" stroke-width="1" fill="blue" tooltip="enable"><title>(3.58702,46)</title></rect><rect x="546" y="199.474" width="6" height="0.525588" stroke="black" stroke-width="1" fill="blue" tooltip="enable"><title>(3.62688,57)</title></rect><rect x="552" y="199.668" width="6" height="0.33195" stroke="black" stroke-width="1" fill="blue" tooltip="enable"><title>(3.66674,36)</title></rect><rect x="558" y="199.806" width="6" height="0.193638" stroke="black" stroke-width="1" fill="blue" tooltip="enable"><title>(3.70659,21)</title></rect><rect x="564" y="199.779" width="6" height="0.2213" stroke="black" stroke-width="1" fill="blue" tooltip="enable"><title>(3.74645,24)</title></rect><rect x="570" y="199.751" width="6" height="0.248963" stroke="black" stroke-width="1" fill="blue" tooltip="enable"><title>(3.7863,27)</title></rect><rect x="576" y="199.733" width="6" height="0.267404" stroke="black" stroke-width="1" fill="blue" tooltip="enable"><title>(3.82616,29)</title></rect><rect x="582" y="199.843" width="6" height="0.156754" stroke="black" stroke-width="1" fill="blue" tooltip="enable"><title>(3.86602,17)</title></rect><rect x="588" y="199.871" width="6" height="0.129092" stroke="black" stroke-width="1" fill="blue" tooltip="enable"><title>(3.90587,14)</title></rect><rect x="594" y="199.935" width="6" height="0.0645459" stroke="black" stroke-width="1" fill="blue" tooltip="enable"><title>(3.94573,7)</title></rect><text x="30" y="240" font-size="20" fill="black">0</text>
<text x="600" y="240" font-size="20" fill="black">3.98558</text>
<polyline points="0,220,600,220" stroke="black" stroke-width="1" fill="none"/>
<text x="720" y="20" font-size="20" fill="black">21690</text>
<text x="720" y="200" font-size="20" fill="black">0</text>
<polyline points="660,0,660,200" stroke="black" stroke-width="1" fill="none"/>
</svg>